REM DIRINDEX 1\2,1\3,1\4,1\5
REM DIRNAME "folder01","folder02","folder03","folder04","folder05"
TITLE ""
FILE "1Q_t_1149-1158.mp3" MP3
  TRACK 01 AUDIO
    TITLE "3:cjc172_4412"
    INDEX 01 00:00:00
  TRACK 02 AUDIO
    TITLE "0:"
    INDEX 01 00:01:22
  TRACK 03 AUDIO
    TITLE "4:cjc172_4413"
    INDEX 01 00:01:27
  TRACK 04 AUDIO
    TITLE "0:"
    INDEX 01 00:03:44
  TRACK 05 AUDIO
    TITLE "5:cjc172_4414"
    INDEX 01 00:03:50
  TRACK 06 AUDIO
    TITLE "0:"
    INDEX 01 00:08:53
  TRACK 07 AUDIO
    TITLE "3:cjc172_4415"
    INDEX 01 00:09:23
  TRACK 08 AUDIO
    TITLE "0:"
    INDEX 01 00:10:52
  TRACK 09 AUDIO
    TITLE "4:cjc172_4416"
    INDEX 01 00:10:60
  TRACK 10 AUDIO
    TITLE "0:"
    INDEX 01 00:13:23
  TRACK 11 AUDIO
    TITLE "5:cjc172_4417"
    INDEX 01 00:13:31
  TRACK 12 AUDIO
    TITLE "0:"
    INDEX 01 00:20:11
  TRACK 13 AUDIO
    TITLE "3:cjc172_4418"
    INDEX 01 00:20:56
  TRACK 14 AUDIO
    TITLE "0:"
    INDEX 01 00:21:71
  TRACK 15 AUDIO
    TITLE "4:cjc172_4419"
    INDEX 01 00:22:04
  TRACK 16 AUDIO
    TITLE "0:"
    INDEX 01 00:24:64
  TRACK 17 AUDIO
    TITLE "5:cjc172_4420"
    INDEX 01 00:24:70
  TRACK 18 AUDIO
    TITLE "0:"
    INDEX 01 00:29:69
  TRACK 19 AUDIO
    TITLE "3:cjc172_4421"
    INDEX 01 00:30:39
  TRACK 20 AUDIO
    TITLE "0:"
    INDEX 01 00:31:48
  TRACK 21 AUDIO
    TITLE "4:cjc172_4422"
    INDEX 01 00:31:58
  TRACK 22 AUDIO
    TITLE "0:"
    INDEX 01 00:33:37
  TRACK 23 AUDIO
    TITLE "5:cjc172_4423"
    INDEX 01 00:33:45
  TRACK 24 AUDIO
    TITLE "0:"
    INDEX 01 00:39:08
  TRACK 25 AUDIO
    TITLE "3:cjc172_4424"
    INDEX 01 00:39:53
  TRACK 26 AUDIO
    TITLE "0:"
    INDEX 01 00:40:69
  TRACK 27 AUDIO
    TITLE "4:cjc172_4425"
    INDEX 01 00:41:03
  TRACK 28 AUDIO
    TITLE "0:"
    INDEX 01 00:42:11
  TRACK 29 AUDIO
    TITLE "5:cjc172_4426"
    INDEX 01 00:42:19
  TRACK 30 AUDIO
    TITLE "0:"
    INDEX 01 00:48:09
  TRACK 31 AUDIO
    TITLE "3:cjc172_4427"
    INDEX 01 00:48:54
  TRACK 32 AUDIO
    TITLE "0:"
    INDEX 01 00:49:75
  TRACK 33 AUDIO
    TITLE "4:cjc172_4428"
    INDEX 01 00:50:10
  TRACK 34 AUDIO
    TITLE "0:"
    INDEX 01 00:51:25
  TRACK 35 AUDIO
    TITLE "5:cjc172_4429"
    INDEX 01 00:51:31
  TRACK 36 AUDIO
    TITLE "0:"
    INDEX 01 00:57:06
  TRACK 37 AUDIO
    TITLE "3:cjc172_4430"
    INDEX 01 00:57:55
  TRACK 38 AUDIO
    TITLE "0:"
    INDEX 01 00:58:67
  TRACK 39 AUDIO
    TITLE "4:cjc172_4431"
    INDEX 01 00:58:72
  TRACK 40 AUDIO
    TITLE "0:"
    INDEX 01 01:01:71
  TRACK 41 AUDIO
    TITLE "5:cjc172_4432"
    INDEX 01 01:02:02
  TRACK 42 AUDIO
    TITLE "0:"
    INDEX 01 01:07:03
  TRACK 43 AUDIO
    TITLE "3:cjc172_4433"
    INDEX 01 01:07:48
  TRACK 44 AUDIO
    TITLE "0:"
    INDEX 01 01:09:02
  TRACK 45 AUDIO
    TITLE "4:cjc172_4434"
    INDEX 01 01:09:10
  TRACK 46 AUDIO
    TITLE "0:"
    INDEX 01 01:11:18
  TRACK 47 AUDIO
    TITLE "5:cjc172_4435"
    INDEX 01 01:11:24
  TRACK 48 AUDIO
    TITLE "0:"
    INDEX 01 01:18:18
  TRACK 49 AUDIO
    TITLE "3:cjc172_4436"
    INDEX 01 01:18:63
  TRACK 50 AUDIO
    TITLE "0:"
    INDEX 01 01:19:73
  TRACK 51 AUDIO
    TITLE "4:cjc172_4437"
    INDEX 01 01:20:05
  TRACK 52 AUDIO
    TITLE "0:"
    INDEX 01 01:23:12
  TRACK 53 AUDIO
    TITLE "5:cjc172_4438"
    INDEX 01 01:23:17
  TRACK 54 AUDIO
    TITLE "0:"
    INDEX 01 01:27:51
  TRACK 55 AUDIO
    TITLE "3:cjc172_4439"
    INDEX 01 01:28:21
  TRACK 56 AUDIO
    TITLE "0:"
    INDEX 01 01:29:45
  TRACK 57 AUDIO
    TITLE "4:cjc172_4440"
    INDEX 01 01:29:55
  TRACK 58 AUDIO
    TITLE "0:"
    INDEX 01 01:32:32
  TRACK 59 AUDIO
    TITLE "5:cjc172_4441"
    INDEX 01 01:32:38
  TRACK 60 AUDIO
    TITLE "0:"
    INDEX 01 01:37:67
